<svg width="32" height="32" viewBox="0 0 32 32" fill="none" xmlns="http://www.w3.org/2000/svg">
<rect width="32" height="32" rx="8" fill="#F3EBFE"/>
<path d="M8.3414 10.33C8.30437 9.2652 9.1339 8.28333 10.2553 8.28333H21.7459C22.8673 8.28333 23.6969 9.2652 23.6598 10.33C23.6242 11.3529 23.6705 12.6779 24.0039 13.7582C24.3384 14.8419 24.9025 15.5268 25.8264 15.6149V16.6129C24.9025 16.701 24.3384 17.3858 24.0039 18.4696C23.6705 19.5499 23.6242 20.8749 23.6598 21.8977C23.6969 22.9625 22.8673 23.9443 21.7459 23.9443H10.2553C9.1339 23.9443 8.30437 22.9624 8.3414 21.8977C8.37703 20.8749 8.33078 19.5499 7.99719 18.4696C7.66281 17.386 7.09719 16.701 6.17328 16.6129V15.6149C7.09719 15.5269 7.66281 14.8419 7.99719 13.7582C8.33078 12.6779 8.37687 11.3529 8.3414 10.33Z" fill="url(#paint0_linear_906_389)"/>
<g filter="url(#filter0_d_906_389)">
<path d="M16.4859 20.3338C18.3014 20.3338 19.3954 19.4449 19.3954 17.9787C19.3954 16.8705 18.6148 16.0681 17.4557 15.9411V15.8949C18.3073 15.7564 18.9755 14.9656 18.9755 14.0824C18.9755 12.8241 17.9821 12.0044 16.4682 12.0044H13.062V20.3338H16.4859ZM14.3866 13.0607H16.1489C17.1069 13.0607 17.6509 13.4879 17.6509 14.2614C17.6509 15.0868 17.0182 15.5486 15.8709 15.5486H14.3866V13.0607ZM14.3866 19.2775V16.5356H16.137C17.3907 16.5356 18.0412 16.9974 18.0412 17.8979C18.0412 18.7984 17.4084 19.2775 16.2139 19.2775H14.3866Z" fill="url(#paint1_linear_906_389)"/>
<path d="M16.4859 20.3338C18.3014 20.3338 19.3954 19.4449 19.3954 17.9787C19.3954 16.8705 18.6148 16.0681 17.4557 15.9411V15.8949C18.3073 15.7564 18.9755 14.9656 18.9755 14.0824C18.9755 12.8241 17.9821 12.0044 16.4682 12.0044H13.062V20.3338H16.4859ZM14.3866 13.0607H16.1489C17.1069 13.0607 17.6509 13.4879 17.6509 14.2614C17.6509 15.0868 17.0182 15.5486 15.8709 15.5486H14.3866V13.0607ZM14.3866 19.2775V16.5356H16.137C17.3907 16.5356 18.0412 16.9974 18.0412 17.8979C18.0412 18.7984 17.4084 19.2775 16.2139 19.2775H14.3866Z" stroke="white" stroke-width="0.0383844"/>
</g>
<defs>
<filter id="filter0_d_906_389" x="12.4286" y="11.5246" width="7.6001" height="9.5961" filterUnits="userSpaceOnUse" color-interpolation-filters="sRGB">
<feFlood flood-opacity="0" result="BackgroundImageFix"/>
<feColorMatrix in="SourceAlpha" type="matrix" values="0 0 0 0 0 0 0 0 0 0 0 0 0 0 0 0 0 0 127 0" result="hardAlpha"/>
<feOffset dy="0.153537"/>
<feGaussianBlur stdDeviation="0.307075"/>
<feColorMatrix type="matrix" values="0 0 0 0 0 0 0 0 0 0 0 0 0 0 0 0 0 0 0.15 0"/>
<feBlend mode="normal" in2="BackgroundImageFix" result="effect1_dropShadow_906_389"/>
<feBlend mode="normal" in="SourceGraphic" in2="effect1_dropShadow_906_389" result="shape"/>
</filter>
<linearGradient id="paint0_linear_906_389" x1="9.09368" y1="8.6978" x2="26.2669" y2="22.3301" gradientUnits="userSpaceOnUse">
<stop stop-color="#9013FE"/>
<stop offset="1" stop-color="#6610F2"/>
</linearGradient>
<linearGradient id="paint1_linear_906_389" x1="13.6612" y1="12.5525" x2="17.4996" y2="19.0445" gradientUnits="userSpaceOnUse">
<stop stop-color="white"/>
<stop offset="1" stop-color="#F1E5FC"/>
</linearGradient>
</defs>
</svg>
